<?xml version="1.0" standalone="no"?>
<!DOCTYPE svg PUBLIC "-//W3C//DTD SVG 20010904//EN"
 "http://www.w3.org/TR/2001/REC-SVG-20010904/DTD/svg10.dtd">
<svg version="1.0" xmlns="http://www.w3.org/2000/svg"
 width="640.000000pt" height="480.000000pt" viewBox="0 0 640.000000 480.000000"
 preserveAspectRatio="xMidYMid meet">

<g transform="translate(0.000000,480.000000) scale(0.100000,-0.100000)"
fill="#000000" stroke="none">
<path d="M0 4656 l0 -144 93 -1 c51 0 147 -5 213 -11 201 -17 261 -20 234 -11
-14 5 -43 9 -66 10 -22 1 -44 4 -48 8 -4 4 -28 6 -54 5 -36 -2 -43 0 -32 8 11
8 7 9 -20 5 -19 -3 -57 -1 -85 4 -47 8 -48 9 -15 11 42 4 16 5 320 -15 135 -9
248 -19 251 -21 3 -2 69 -8 145 -14 76 -5 213 -17 304 -25 91 -8 237 -20 325
-26 88 -6 221 -15 295 -21 74 -6 299 -11 500 -12 357 -3 464 -9 476 -27 3 -5
-16 -9 -43 -9 -72 0 -88 -16 -30 -31 26 -6 47 -15 47 -20 0 -5 12 -9 28 -9 15
0 61 -10 102 -21 41 -11 84 -22 95 -23 11 -1 33 -8 48 -14 19 -8 34 -9 46 -2
10 5 21 7 24 4 11 -11 199 -55 206 -48 10 9 -36 33 -64 34 -17 0 -35 4 -40 9
-6 5 -21 12 -35 14 -36 8 177 -4 225 -12 30 -5 41 -12 46 -31 7 -24 7 -24 8
-2 1 12 6 22 12 22 9 0 10 -20 5 -69 -7 -78 -14 -103 -27 -95 -5 3 -9 -3 -9
-12 0 -10 -3 -14 -7 -11 -7 7 -35 -51 -46 -95 -5 -20 -12 -25 -27 -21 -11 3
-20 0 -20 -6 0 -11 -119 -76 -126 -69 -2 2 17 21 41 42 48 40 57 57 25 49 -15
-4 -19 -2 -14 10 11 31 -7 38 -28 12 -27 -34 -42 -20 -27 26 13 40 54 78 78
73 9 -2 25 3 35 11 16 12 17 18 8 27 -9 9 -12 9 -12 -1 0 -8 -11 -11 -36 -7
-25 4 -33 3 -28 -6 5 -7 3 -8 -6 -3 -8 5 -18 1 -27 -10 -7 -11 -13 -13 -13 -7
0 7 -4 12 -9 12 -4 0 -11 -22 -14 -49 -3 -27 -15 -66 -26 -87 -12 -21 -21 -52
-21 -68 0 -24 -2 -27 -15 -16 -22 18 -20 89 3 97 37 14 43 46 7 37 -25 -6 -35
8 -15 21 12 8 13 55 1 55 -11 0 -41 -61 -42 -87 0 -10 -7 5 -13 32 -9 36 -15
45 -20 33 -9 -20 18 -132 45 -184 29 -58 25 -97 -16 -143 -19 -21 -35 -45 -35
-54 0 -8 -4 -17 -9 -19 -12 -4 -91 -155 -91 -173 0 -8 -3 -15 -7 -15 -5 0 -9
23 -11 52 -2 48 1 54 33 84 20 18 35 41 35 54 0 20 -1 20 -17 4 -20 -20 -29
-4 -14 25 6 11 11 27 11 37 0 9 6 22 14 28 7 6 16 25 19 42 5 28 4 31 -13 27
-21 -6 -28 -22 -28 -70 -1 -18 -5 -40 -11 -50 -10 -17 -10 -17 -11 2 -1 19 -2
19 -20 -4 -11 -13 -20 -18 -20 -13 0 6 5 14 10 17 5 3 10 21 10 38 -1 27 -2
29 -11 15 -18 -32 -27 -19 -34 47 -6 54 -4 69 9 84 9 10 16 27 16 39 l0 22
-21 -21 c-20 -20 -21 -28 -15 -117 7 -83 6 -94 -7 -84 -8 7 -17 35 -21 62 -4
28 -12 50 -17 50 -7 0 -9 -11 -5 -27 l6 -28 -19 23 c-11 12 -22 22 -26 22 -10
0 47 -93 77 -126 29 -31 30 -36 35 -156 4 -113 3 -125 -15 -141 -17 -16 -20
-16 -25 -2 -4 9 -18 15 -34 15 -30 -1 -111 -21 -128 -32 -24 -15 -33 7 -24 57
11 69 11 87 -1 80 -6 -3 -21 2 -35 13 -14 11 -42 23 -62 27 -38 7 -59 23 -81
60 -6 11 -12 14 -12 7 0 -10 -4 -10 -21 0 -18 11 -23 11 -26 0 -8 -20 -63 37
-63 64 0 28 -15 39 -60 41 -68 3 -90 15 -90 46 l1 22 12 -22 c13 -23 30 -20
40 7 3 10 6 7 6 -8 1 -31 35 -26 39 7 6 38 -7 74 -23 67 -9 -3 -15 1 -15 10 0
23 -29 28 -49 10 -12 -11 -21 -13 -25 -7 -4 7 -15 7 -31 1 -26 -10 -28 -8 -40
64 -5 31 -2 42 14 58 22 20 29 44 10 32 -8 -5 -8 -1 0 14 15 29 14 37 -4 22
-13 -10 -15 -9 -15 11 0 19 -2 21 -10 9 -8 -12 -10 -11 -10 8 0 12 -4 22 -10
22 -5 0 -10 -10 -10 -22 0 -12 -3 -18 -7 -14 -4 3 -6 25 -4 47 1 25 -2 38 -8
35 -5 -4 -11 4 -14 16 l-4 23 -11 -25 c-6 -14 -11 -19 -11 -12 -1 6 -8 12 -16
12 -9 0 -18 7 -22 17 -5 14 -8 13 -14 -5 -5 -12 -15 -22 -24 -22 -21 0 -19
-13 5 -35 11 -10 17 -22 14 -27 -4 -5 3 -16 15 -24 12 -8 21 -23 21 -32 0 -14
2 -14 9 -3 16 25 39 -10 51 -80 7 -35 18 -79 26 -97 17 -41 17 -45 0 -39 -23
9 -27 -5 -11 -30 15 -23 15 -24 -15 -35 -33 -11 -34 -18 -3 -23 10 -1 17 -8
15 -15 -5 -22 9 -71 19 -65 4 3 14 24 20 45 7 22 16 37 20 34 4 -2 2 -22 -6
-43 -7 -22 -11 -42 -8 -45 3 -3 0 -26 -7 -51 -11 -39 -10 -48 4 -70 26 -39 52
-32 79 23 21 42 27 47 59 50 31 3 42 -3 77 -38 40 -41 53 -79 29 -81 -7 -1
-29 -2 -48 -3 -72 -2 -81 -36 -18 -65 40 -18 41 -20 18 -25 -14 -2 -41 -5 -60
-5 -19 0 -72 -2 -117 -5 -78 -5 -83 -5 -83 14 0 11 -4 20 -10 20 -5 0 -10 10
-11 23 -1 17 -3 15 -10 -10 -5 -18 -13 -33 -18 -33 -13 0 -54 119 -59 171 -4
47 12 220 28 294 5 22 11 58 14 80 l5 40 -25 -50 c-26 -50 -53 -175 -54 -250
-1 -38 -2 -39 -12 -15 -51 114 -79 161 -128 210 -67 67 -115 97 -123 76 -3 -8
9 -24 29 -39 81 -57 161 -177 199 -298 14 -45 16 -73 10 -142 -4 -48 -10 -87
-14 -87 -4 0 -16 16 -27 35 -18 34 -34 46 -34 24 0 -6 5 -19 10 -30 6 -11 7
-19 1 -19 -5 0 -7 -10 -5 -22 3 -13 -1 -9 -10 11 -9 18 -17 45 -17 60 -1 19
-3 21 -6 7 -4 -16 -8 -14 -34 14 -34 37 -49 34 -24 -4 9 -14 23 -46 31 -71
l13 -46 -33 20 c-35 22 -55 18 -31 -5 8 -8 11 -22 8 -31 -5 -12 -2 -15 9 -10
9 3 23 -2 33 -13 16 -17 14 -19 -38 -30 -54 -11 -55 -11 -59 -51 -2 -21 0 -39
4 -39 5 0 8 -8 8 -17 0 -14 -5 -12 -27 9 -16 14 -38 31 -50 37 -19 10 -21 15
-13 37 7 17 7 38 1 61 -9 31 -7 38 11 53 19 15 20 20 9 50 -23 67 -76 93 -103
51 -9 -15 -19 -18 -43 -14 -18 3 -42 0 -53 -6 -18 -10 -24 -8 -34 9 -17 26
-59 26 -83 0 -16 -18 -32 -121 -17 -105 11 11 40 -27 36 -48 -2 -12 -2 -16 2
-9 9 18 20 15 21 -8 1 -11 -2 -18 -8 -15 -16 10 -10 -17 8 -37 10 -12 13 -22
8 -26 -16 -11 -54 -69 -65 -97 -5 -14 -15 -25 -22 -25 -9 0 -9 3 -3 8 20 13
11 54 -17 75 -24 18 -29 18 -44 6 -16 -12 -17 -12 -9 1 7 12 6 13 -7 3 -9 -8
-34 -11 -67 -8 -31 2 -49 0 -46 -6 4 -5 -1 -12 -9 -15 -9 -3 -13 -10 -10 -15
3 -6 0 -17 -7 -25 -10 -12 -9 -18 6 -32 18 -16 18 -16 6 1 -8 9 -12 20 -9 22
9 9 28 -21 30 -48 1 -15 8 -29 16 -32 7 -3 10 -9 7 -15 -4 -6 -11 -8 -16 -5
-5 4 -9 1 -9 -4 0 -6 -7 -11 -15 -11 -9 0 -12 6 -9 15 4 8 1 15 -5 15 -6 0
-11 -9 -11 -19 0 -11 -5 -23 -10 -26 -5 -3 -10 1 -10 9 0 26 -1 30 -12 44 -6
7 -20 11 -32 10 -13 -2 -24 5 -33 22 l-13 25 0 -23 c0 -13 -4 -20 -10 -17 -5
3 -20 8 -32 10 -13 3 -36 18 -51 35 -21 22 -34 29 -49 25 -13 -5 -19 -2 -17 7
4 28 -23 78 -43 78 -11 0 -22 8 -25 19 -3 13 -11 17 -26 13 -16 -4 -19 -2 -14
11 8 22 -2 47 -19 47 -20 0 -34 -33 -35 -87 -1 -38 -3 -31 -10 32 -5 44 -13
102 -19 128 -5 26 -10 65 -10 86 0 29 -5 40 -18 43 -16 5 -20 19 -25 90 -4 47
-10 98 -13 114 l-6 30 -96 2 c-53 2 -113 7 -132 12 l-35 8 40 2 c22 1 51 5 65
9 23 7 21 8 -15 14 -25 4 -42 2 -46 -5 -6 -9 -14 -9 -32 -1 -13 6 -66 14 -118
18 -52 4 -111 11 -131 15 l-38 8 0 -69 0 -69 38 0 c20 -1 128 -1 238 0 l201 0
7 -38 c3 -20 6 -52 6 -70 0 -23 4 -31 12 -26 6 4 8 3 5 -3 -8 -12 -9 -86 -3
-206 2 -54 0 -100 -5 -103 -5 -3 -7 -10 -3 -15 3 -6 -5 -7 -23 -3 -27 6 -27 6
-8 -9 25 -19 18 -27 -17 -20 -19 4 -28 12 -28 24 0 22 -16 34 -24 17 -5 -11
-3 21 5 58 5 27 -2 55 -14 51 -6 -2 -11 -12 -11 -21 3 -28 -21 -12 -24 17 -2
19 -10 27 -32 32 -16 4 -29 10 -28 13 3 18 -16 42 -33 42 -10 0 -19 4 -19 9 0
5 -10 11 -22 14 -17 5 -19 9 -9 21 10 11 9 19 -1 35 -15 24 -40 29 -32 6 4 -8
3 -23 -1 -32 -6 -16 -8 -16 -15 4 -5 12 -25 27 -44 34 -23 8 -36 19 -36 31 0
20 -20 24 -37 7 -19 -19 -26 11 -7 32 16 18 16 19 -9 19 l-27 0 0 -1790 0
-1790 3200 0 3200 0 0 1388 0 1387 -90 -2 c-57 -2 -92 1 -96 8 -6 11 -16 130
-17 219 -3 127 35 869 66 1295 1 20 -2 29 -11 27 -104 -21 -430 -84 -502 -97
-52 -9 -111 -20 -130 -25 -19 -5 -80 -17 -135 -26 -151 -25 -147 -23 -140 -91
l7 -58 -61 -53 -61 -53 -1 108 c-1 59 -1 114 0 121 2 9 -9 11 -41 6 -24 -3
-50 -8 -58 -11 -8 -3 -61 -14 -117 -24 -370 -68 -510 -99 -451 -99 17 0 27
-48 29 -150 2 -58 -10 -660 -16 -795 -2 -44 -4 -96 -4 -115 l-1 -35 -65 -3
c-48 -2 -65 0 -66 10 -2 59 -3 238 -2 623 2 702 1 765 -8 765 -5 0 -9 -4 -9
-9 0 -5 -9 -7 -20 -4 -11 3 -26 1 -33 -5 -6 -5 -29 -12 -49 -16 -25 -5 -45
-17 -62 -38 -13 -18 -24 -25 -24 -17 1 8 0 28 -1 44 -1 23 -3 27 -11 15 -8
-12 -10 -11 -10 7 0 24 24 53 46 53 7 0 16 11 20 25 3 14 14 25 23 26 10 0 11
2 4 6 -24 9 -13 23 17 23 23 0 30 4 30 20 0 34 30 60 62 53 32 -6 41 16 9 24
-22 6 -34 40 -19 50 7 3 8 1 4 -5 -5 -8 0 -12 13 -12 14 0 19 5 15 15 -4 8 -1
15 5 15 6 0 11 5 11 10 0 6 -7 10 -15 10 -8 0 -15 5 -15 10 0 6 8 10 18 8 14
-3 17 6 18 57 1 71 -2 80 -24 63 -14 -12 -15 -9 -9 20 5 24 3 32 -7 32 -8 0
-17 -6 -20 -12 -5 -10 -7 -10 -12 -1 -4 10 -470 13 -2195 13 l-2189 0 0 -144z
m3280 -356 c40 -6 28 -7 -45 -4 -55 1 -103 3 -107 3 -5 1 -8 6 -8 12 0 8 15 9
53 4 28 -5 77 -11 107 -15z m900 -71 c12 -8 8 -10 -16 -7 -25 3 -31 1 -26 -10
4 -12 0 -14 -22 -8 -16 4 -25 3 -22 -2 6 -10 -64 -25 -73 -17 -2 3 4 5 15 5
16 0 17 2 4 11 -12 8 -9 10 13 6 15 -2 25 -2 22 1 -7 8 44 30 70 31 11 0 27
-4 35 -10z m30 -146 c0 -65 -5 -125 -10 -133 -8 -13 -10 -12 -10 3 0 17 -15
17 -66 2 -6 -2 -17 1 -25 6 -12 7 -12 9 1 10 51 4 74 9 81 16 4 4 9 54 10 111
2 56 6 102 11 102 4 0 8 -53 8 -117z m1768 3 c-2 -16 -7 -22 -17 -18 -10 4
-12 1 -6 -9 5 -8 4 -11 0 -6 -5 4 -11 19 -12 32 -3 20 1 25 17 25 15 0 19 -6
18 -24z m-2324 -46 c17 0 23 -16 21 -55 -1 -16 -3 -45 -3 -63 -2 -43 -22 -38
-37 9 -8 22 -14 29 -17 19 -3 -8 -6 18 -6 58 0 66 2 71 15 52 8 -11 20 -20 27
-20z m2362 -7 c-15 -4 -16 -7 -5 -14 11 -7 11 -9 1 -9 -8 0 -10 -5 -6 -12 4
-7 3 -10 -1 -5 -5 4 -10 16 -12 27 -2 15 3 20 20 19 19 -1 19 -2 3 -6z m-3877
-46 c0 -27 -2 -29 -9 -12 -12 28 -12 57 0 50 6 -3 10 -21 9 -38z m3705 12 c-3
-6 0 -16 7 -21 11 -8 11 -9 -3 -5 -10 4 -18 -1 -21 -14 -7 -25 -20 -24 -54 6
-17 15 -21 23 -10 19 9 -3 17 -1 17 4 0 6 12 13 28 15 15 2 31 5 35 6 5 0 5
-4 1 -10z m-2347 -21 c-3 -8 -6 -5 -6 6 -1 11 2 17 5 13 3 -3 4 -12 1 -19z
m2519 -26 c-2 -11 -12 -17 -29 -16 -14 0 -24 -3 -21 -8 6 -9 -22 -15 -98 -22
-34 -3 -58 -1 -58 5 0 12 8 14 103 30 49 8 77 18 77 26 0 7 6 10 14 7 8 -3 13
-13 12 -22z m-1941 8 c-3 -5 -14 -10 -23 -9 -14 0 -13 2 3 9 27 11 27 11 20 0z
m-85 -20 c0 -5 -4 -10 -10 -10 -5 0 -10 5 -10 10 0 6 5 10 10 10 6 0 10 -4 10
-10z m-764 -76 c-15 -27 -25 -40 -22 -29 2 11 8 40 11 64 6 38 9 41 22 28 13
-13 12 -20 -11 -63z m2114 63 c0 -8 -16 -35 -36 -61 -23 -28 -42 -67 -49 -98
-14 -62 -35 -76 -35 -24 0 48 22 100 66 153 36 44 54 54 54 30z m833 -1 c3 -8
2 -27 -3 -43 -5 -16 -9 -21 -9 -10 -1 10 -7 17 -13 16 -35 -4 -39 1 -21 26 20
28 38 32 46 11z m-2736 -11 c0 -8 -4 -12 -9 -9 -4 3 -8 0 -8 -6 0 -6 -4 -9 -9
-6 -4 3 -17 -1 -27 -9 -10 -8 -23 -14 -29 -14 -5 -1 10 13 35 29 25 16 45 29
46 29 0 1 1 -6 1 -14z m193 8 c0 -5 -5 -15 -10 -23 -8 -12 -10 -11 -10 8 0 12
5 22 10 22 6 0 10 -3 10 -7z m1780 -48 c0 -23 -6 -38 -15 -42 -25 -9 -27 2
-11 41 19 45 26 46 26 1z m580 5 c0 -5 -5 -10 -11 -10 -5 0 -7 5 -4 10 3 6 8
10 11 10 2 0 4 -4 4 -10z m-2339 -35 c5 4 9 0 9 -8 0 -12 9 -14 39 -10 l39 5
3 -113 c6 -237 4 -588 -3 -595 -4 -4 -14 -2 -21 5 -9 6 -27 8 -47 4 -30 -6
-33 -4 -28 15 4 12 2 22 -2 22 -5 0 -11 -8 -13 -17 -3 -10 -6 92 -7 227 -1
135 -4 301 -6 368 -4 113 -3 122 12 108 8 -9 20 -14 25 -11z m2100 -1 c12 -14
11 -16 -5 -13 -11 2 -21 10 -24 17 -5 17 13 15 29 -4z m-2323 -23 c3 -10 -2
-13 -22 -9 -14 3 -26 2 -26 -1 0 -9 -73 -41 -93 -41 -10 0 -17 -4 -17 -9 0 -5
-15 -9 -34 -8 l-34 2 16 28 c10 17 29 31 45 34 15 3 30 10 33 15 9 15 127 5
132 -11z m-1138 -1 c12 -8 11 -10 -7 -10 -13 0 -23 5 -23 10 0 13 11 13 30 0z
m1490 -130 c5 -32 0 -54 -9 -44 -9 9 -14 36 -12 64 1 17 18 2 21 -20z m-3343
-16 c-3 -3 -12 -4 -19 -1 -8 3 -5 6 6 6 11 1 17 -2 13 -5z m2524 -45 c-9 -22
-10 -22 -10 -3 -1 11 2 24 6 27 12 12 14 0 4 -24z m150 -209 c-4 -22 -5 -23
-12 -5 -4 11 -8 15 -8 9 -1 -7 -10 -14 -21 -17 -18 -5 -20 0 -20 39 0 24 4 52
9 62 5 9 17 34 27 55 l19 38 5 -78 c3 -43 3 -89 1 -103z m2852 121 c6 -23 0
-31 -18 -25 -7 3 -11 14 -8 25 7 24 19 24 26 0z m-43 -22 c0 -14 -17 -10 -23
5 -4 10 -1 13 9 9 7 -3 14 -9 14 -14z m-3338 -6 c-6 -2 -9 -9 -6 -14 3 -6 11
-5 20 2 12 9 14 6 14 -20 0 -17 -2 -31 -5 -31 -13 0 -75 35 -75 42 0 9 37 27
55 27 6 -1 4 -3 -3 -6z m3328 -47 c0 5 11 9 25 9 30 0 31 -3 8 -22 -11 -9 -12
-12 -3 -7 12 6 13 5 2 -7 -8 -9 -15 -10 -20 -4 -4 6 -16 11 -27 13 -16 2 -17
1 -5 -7 12 -8 12 -11 -4 -17 -22 -8 -51 7 -51 27 0 9 8 13 23 11 12 -2 22 2
22 9 0 8 4 8 15 -1 8 -7 15 -9 15 -4z m-627 -36 c23 0 31 -19 28 -62 -1 -20 2
-45 8 -55 14 -27 1 -42 -52 -58 l-47 -14 0 116 0 116 23 -21 c13 -12 31 -22
40 -22z m540 15 c4 -8 2 -17 -3 -20 -6 -4 -10 3 -10 14 0 25 6 27 13 6z m-26
-10 c0 -10 -10 -15 -26 -15 l-26 0 25 14 c14 8 25 14 26 15 0 1 1 -6 1 -14z
m-4234 -58 c-3 -5 -9 -4 -13 3 -5 8 -10 9 -14 2 -8 -13 8 -24 26 -17 8 3 21
-7 31 -25 10 -16 15 -30 11 -30 -3 0 -1 -7 6 -15 10 -12 7 -15 -16 -21 -25 -7
-26 -8 -9 -15 17 -7 18 -8 3 -8 -10 -1 -18 -8 -18 -16 0 -9 -6 -12 -16 -8 -13
5 -13 7 -2 14 15 10 7 12 -16 3 -9 -3 -14 -9 -11 -13 2 -4 -10 -5 -28 -2 l-32
5 30 7 c17 4 26 7 21 8 -5 0 3 12 19 26 20 20 30 23 40 15 11 -9 12 -7 8 9 -3
12 -11 17 -19 14 -8 -3 -14 0 -14 6 0 6 5 11 10 11 6 0 10 5 10 10 0 6 -7 10
-15 10 -8 0 -22 11 -31 25 -13 20 -22 24 -43 18 -14 -3 -30 -12 -34 -20 -5 -7
-14 -10 -20 -6 -7 4 -5 -2 3 -12 8 -10 10 -16 4 -12 -16 10 -27 -24 -13 -37 9
-8 10 -6 5 9 -5 14 -4 17 4 9 15 -15 2 -48 -15 -34 -6 5 -14 8 -17 5 -3 -3
-11 2 -18 10 -11 13 -11 18 0 28 10 10 11 9 5 -2 -6 -10 -4 -12 4 -7 6 4 10
15 7 24 -8 28 37 74 81 82 32 6 42 3 65 -18 15 -14 25 -29 21 -35z m1041 34
c25 -27 13 -43 -22 -30 -26 10 -42 26 -42 42 0 15 48 6 64 -12z m2760 -9 c3
-5 19 -7 35 -4 17 2 39 -2 53 -12 12 -9 18 -16 13 -16 -6 0 -3 -4 5 -10 24
-15 -51 -9 -82 7 -16 7 -28 9 -28 4 0 -6 -7 -8 -15 -5 -19 8 -20 44 -1 44 8 0
17 -4 20 -8z m284 -19 c2 -12 -8 -33 -22 -48 -16 -18 -26 -23 -27 -14 0 8 -4
4 -9 -8 -15 -36 -50 -53 -95 -46 -36 6 -37 7 -15 15 13 5 30 6 38 3 8 -3 12 0
10 7 -3 7 -15 15 -27 16 -20 3 -22 8 -17 35 7 36 7 36 32 40 10 2 30 9 44 15
41 17 84 10 88 -15z m269 11 c-3 -3 -12 -4 -19 -1 -8 3 -5 6 6 6 11 1 17 -2
13 -5z m-486 -71 c46 -21 50 -34 10 -30 -16 1 -29 5 -28 9 1 4 -7 14 -18 22
-27 21 -10 20 36 -1z m-1613 -90 c2 -62 -1 -83 -13 -93 -13 -10 -15 -9 -16 6
-1 17 -1 124 1 162 0 8 6 12 13 10 8 -3 13 -32 15 -85z m-1888 46 c0 -5 -4 -9
-10 -9 -5 0 -10 7 -10 16 0 8 5 12 10 9 6 -3 10 -10 10 -16z m3425 11 c3 -5 1
-10 -4 -10 -6 0 -11 5 -11 10 0 6 2 10 4 10 3 0 8 -4 11 -10z m-3922 -23 c9
-3 17 -11 17 -17 0 -13 -13 -13 -28 2 -8 8 -15 8 -28 -3 -16 -12 -17 -12 -9 1
6 8 10 18 11 23 1 4 2 10 3 15 1 4 5 2 9 -4 4 -6 15 -13 25 -17z m595 6 c2 -8
-5 -13 -17 -13 -12 0 -21 6 -21 16 0 18 31 15 38 -3z m-598 -43 c8 -15 8 -18
-3 -14 -8 3 -14 11 -14 19 0 20 4 19 17 -5z m640 -24 c0 -2 -12 -11 -27 -20
l-28 -17 24 20 c23 21 31 25 31 17z m22 -31 c-6 -35 -19 -40 -17 -7 3 40 4 44
14 38 4 -3 6 -17 3 -31z m-608 16 c19 -7 19 -8 -2 -13 -14 -4 -20 -2 -15 5 4
6 0 8 -10 4 -10 -3 -17 -2 -17 3 0 12 17 12 44 1z m79 -13 c-2 -5 -10 -8 -18
-8 -8 0 -16 3 -18 8 -3 4 5 7 18 7 13 0 21 -3 18 -7z m355 -11 c7 -8 7 -18 2
-27 -9 -13 -10 -13 -10 0 0 13 -2 13 -9 0 -6 -8 -8 -17 -5 -21 2 -4 0 -10 -5
-13 -15 -10 -21 23 -9 49 13 28 21 31 36 12z m835 -10 c6 4 8 0 4 -10 -3 -10
-2 -17 2 -17 5 0 11 5 13 12 3 8 6 7 10 -4 5 -11 1 -15 -13 -14 -20 1 -39 22
-38 41 0 6 3 4 6 -3 2 -6 10 -9 16 -5z m-1523 -23 c0 -8 -19 -13 -24 -6 -3 5
1 9 9 9 8 0 15 -2 15 -3z m-30 -32 c-5 -2 -6 -11 -3 -20 4 -14 3 -14 -5 -2 -6
8 -8 18 -6 22 3 4 0 8 -6 8 -6 0 -8 4 -5 10 4 6 11 5 20 -3 7 -6 9 -13 5 -15z
m641 1 c-12 -20 -14 -14 -5 12 4 9 9 14 11 11 3 -2 0 -13 -6 -23z m-1386 -3
c3 -5 -1 -10 -10 -10 -9 0 -13 5 -10 10 3 6 8 10 10 10 2 0 7 -4 10 -10z m997
-34 c3 2 11 -2 18 -11 11 -13 10 -14 -4 -9 -9 3 -16 2 -16 -3 0 -5 12 -14 28
-19 25 -9 24 -10 -16 -9 -48 1 -59 9 -66 47 -5 28 -4 28 23 13 16 -8 31 -12
33 -9z m184 -21 c-18 -26 -40 -30 -68 -11 l-22 16 32 6 c17 4 37 13 43 21 19
22 32 -7 15 -32z m92 -12 c2 -26 -3 -44 -12 -52 -8 -7 -12 -20 -9 -29 5 -13 3
-14 -7 -5 -7 6 -18 9 -25 6 -22 -8 -39 35 -26 64 6 13 11 32 11 41 0 13 8 17
32 16 31 -1 33 -3 36 -41z m-196 20 c-6 -3 -9 -10 -5 -16 4 -7 -2 -5 -13 3
-10 8 -20 15 -22 16 -2 1 10 1 25 1 15 0 22 -2 15 -4z m-1077 -14 c11 -16 1
-19 -13 -3 -7 8 -8 14 -3 14 5 0 13 -5 16 -11z m935 -30 c7 -11 9 -27 6 -35
-3 -9 -1 -12 4 -9 6 3 11 0 12 -7 1 -12 3 -38 7 -75 0 -7 13 -19 29 -28 26
-15 26 -16 2 -10 -22 5 -23 5 -7 -5 15 -10 22 -8 38 9 11 12 24 19 30 16 5 -4
9 -1 9 5 0 5 14 9 30 8 21 -2 29 -7 25 -16 -2 -7 0 -10 5 -7 5 3 25 3 44 0
l34 -7 -21 -21 c-12 -12 -25 -21 -29 -20 -5 2 -8 -2 -8 -7 0 -19 -20 -10 -50
23 -16 17 -30 26 -30 20 0 -7 -7 -13 -15 -13 -8 0 -15 -9 -15 -20 0 -11 -5
-20 -12 -20 -19 0 0 -13 37 -26 19 -6 35 -8 35 -3 0 13 41 22 52 11 6 -6 17
-8 24 -5 40 15 -12 -63 -62 -94 -18 -12 -18 -12 4 -19 12 -3 22 -10 22 -14 0
-10 -26 -31 -36 -29 -16 3 -74 -13 -80 -22 -7 -13 18 -37 34 -31 9 3 7 -7 -5
-32 -10 -20 -24 -34 -30 -31 -7 2 -13 -1 -13 -7 0 -7 -4 -7 -14 1 -11 9 -15 7
-21 -11 -4 -13 -7 -26 -6 -30 1 -5 -4 -8 -11 -8 -6 0 -8 -3 -5 -7 4 -3 2 -12
-5 -20 -8 -11 -7 -12 6 -7 12 4 16 0 16 -15 0 -27 16 -27 30 0 10 17 9 20 -6
17 -9 -2 -19 2 -21 9 -3 7 4 11 16 10 12 -1 21 -5 21 -10 0 -5 7 -3 17 4 15
13 15 12 4 -10 -12 -22 -7 -47 16 -80 2 -3 10 5 19 17 8 12 22 22 30 22 8 0
13 4 9 10 -3 5 -13 6 -23 3 -13 -5 -14 -3 -6 6 9 10 17 10 34 1 16 -9 19 -14
11 -20 -9 -5 -6 -9 8 -13 12 -3 19 -1 15 4 -3 5 0 9 5 9 6 0 11 -3 11 -7 -1
-18 -17 -28 -50 -30 -19 0 -27 1 -17 4 9 2 17 9 17 14 0 13 -18 11 -27 -3 -13
-22 -12 -37 3 -31 9 3 14 0 12 -8 -2 -10 7 -13 32 -12 19 1 28 0 20 -4 -52
-20 -79 -36 -74 -44 3 -5 -2 -9 -10 -9 -9 0 -16 -7 -16 -15 0 -8 -7 -15 -16
-15 -9 0 -14 6 -11 13 6 15 -60 84 -70 74 -3 -4 -1 -7 5 -7 17 0 15 -30 -3
-36 -24 -10 -17 -24 11 -24 14 0 23 4 19 10 -3 6 -4 10 -1 10 3 0 10 -9 16
-20 10 -18 8 -20 -12 -17 -13 2 -17 2 -10 0 18 -7 15 -23 -5 -23 -10 0 -29 -3
-43 -5 -14 -3 -19 -3 -12 1 17 8 15 27 -3 20 -8 -3 -15 -1 -15 5 0 6 -6 9 -14
6 -8 -3 -20 1 -28 10 -11 14 -10 15 12 8 23 -7 23 -7 7 9 -9 10 -17 28 -17 42
0 21 -4 24 -37 24 l-38 -1 25 -14 c14 -8 19 -14 10 -14 -25 0 -61 35 -54 53 8
20 24 21 24 1 0 -8 9 -15 20 -15 23 0 24 3 8 30 -10 15 -9 24 2 44 12 24 11
28 -14 50 -16 13 -24 26 -18 30 16 9 42 -4 43 -23 0 -12 2 -11 8 4 9 22 4 38
-9 30 -5 -3 -12 -1 -15 5 -5 8 -11 7 -22 -1 -12 -10 -16 -10 -23 2 -6 8 -5 18
0 23 6 6 10 21 10 34 0 20 -3 22 -14 13 -18 -15 -23 -5 -22 41 1 29 -1 34 -11
26 -10 -8 -13 -6 -13 6 0 9 -4 16 -8 16 -5 0 -9 -7 -9 -15 0 -8 4 -15 9 -15 5
0 6 -4 3 -10 -9 -14 -25 -12 -23 3 2 6 -7 12 -19 12 -12 0 -25 4 -29 8 -4 4
-12 7 -18 7 -6 0 -4 -5 4 -10 8 -5 10 -10 4 -10 -6 0 -19 9 -30 21 -17 19 -17
22 -3 32 17 13 39 50 39 65 0 4 -17 13 -37 19 -38 10 -38 10 -8 12 26 2 27 4
10 11 -19 8 -19 9 3 9 12 1 33 8 45 16 15 9 27 11 37 5 11 -8 12 -12 3 -18 -9
-6 -7 -12 7 -22 20 -14 29 -37 10 -25 -5 3 -10 -3 -10 -14 0 -12 -6 -21 -12
-21 -9 0 -9 -3 1 -9 11 -7 10 -10 -5 -15 -10 -3 0 -3 23 -1 34 4 42 2 46 -12
4 -15 5 -14 6 2 0 12 6 26 13 33 13 13 -7 45 -26 39 -16 -5 -44 34 -38 55 4
15 7 16 20 6 13 -11 15 -10 9 5 -5 13 -1 17 15 17 42 0 10 10 -48 16 -32 3
-63 9 -68 14 -5 5 -1 7 11 4 13 -4 20 0 20 10 0 9 -5 16 -11 16 -6 1 1 7 16
16 15 8 26 20 25 27 -2 6 1 2 7 -10 5 -13 13 -23 18 -23 4 0 5 -7 1 -16 -5
-14 -8 -12 -19 7 -7 13 -13 18 -14 11 0 -7 -4 -11 -9 -8 -5 4 -8 -2 -7 -11 2
-13 12 -18 35 -18 17 0 31 -3 31 -6 0 -4 16 -9 35 -11 19 -2 35 0 35 5 0 5 9
7 21 4 50 -13 91 32 55 62 -23 19 -25 48 -5 80 22 36 44 40 59 10z m158 7 c-7
-8 -15 -12 -17 -11 -5 6 10 25 20 25 5 0 4 -6 -3 -14z m32 -10 c0 -2 -7 -7
-16 -10 -8 -3 -12 -2 -9 4 6 10 25 14 25 6z m-589 -93 c-8 -15 -10 -15 -11 -2
0 17 10 32 18 25 2 -3 -1 -13 -7 -23z m-26 -43 c3 -13 9 -27 15 -30 7 -5 6
-11 -5 -20 -13 -11 -15 -10 -9 4 4 12 0 16 -15 16 -24 0 -28 18 -7 26 9 3 12
13 9 22 -4 9 -3 14 1 11 4 -4 9 -17 11 -29z m40 1 c-8 -14 -25 -14 -25 0 0 5
5 7 10 4 6 -3 10 -1 10 6 0 7 3 10 6 6 3 -3 3 -10 -1 -16z m145 9 c0 -5 -5
-10 -11 -10 -5 0 -7 5 -4 10 3 6 8 10 11 10 2 0 4 -4 4 -10z m585 -44 c0 -25
-4 -32 -15 -28 -8 3 -18 10 -22 16 -5 7 -8 7 -8 -2 0 -7 -5 -10 -10 -7 -6 4 4
17 22 30 18 13 33 24 33 24 0 1 0 -14 0 -33z m-27 -276 c-2 -122 -5 -150 -18
-150 -5 0 -6 9 -3 19 3 13 -2 23 -17 31 -12 6 -24 9 -27 7 -2 -3 5 -8 16 -12
12 -3 21 -13 21 -20 0 -18 -23 -32 -28 -17 -2 7 -8 10 -13 6 -5 -3 -9 0 -9 5
0 6 6 11 13 12 6 0 -4 8 -23 17 -19 8 -39 15 -43 14 -5 -2 -6 2 -2 8 3 5 0 10
-7 10 -8 0 -9 3 -3 8 6 4 11 21 12 37 2 29 53 84 79 85 19 0 47 72 34 86 -4 5
-5 25 -2 44 6 34 6 33 14 -20 4 -30 7 -107 6 -170z m4542 169 c0 -19 -26 -8
-27 12 -2 17 1 18 13 9 8 -7 14 -16 14 -21z m-3926 -15 c9 -3 16 -12 16 -20 0
-10 -14 -14 -51 -14 -28 0 -59 -5 -70 -10 -24 -13 -25 2 -1 22 25 23 76 34
106 22z m-1290 -49 c-4 -8 -8 -15 -10 -15 -2 0 -4 7 -4 15 0 8 4 15 10 15 5 0
7 -7 4 -15z m4066 1 c31 -39 -29 -106 -95 -106 -38 0 -52 14 -57 55 -3 26 2
32 32 47 44 21 104 23 120 4z m-2432 -77 c-5 -4 -19 -4 -30 -1 -18 4 -18 5 4
16 24 13 48 -2 26 -15z m-1482 2 c0 -11 -4 -17 -8 -15 -11 7 -10 -10 2 -21 6
-6 -3 -10 -24 -10 -19 0 -33 5 -33 12 0 8 6 9 19 2 19 -10 27 5 7 16 -6 5 -4
12 8 21 24 18 29 17 29 -5z m-123 -11 c4 0 5 5 2 10 -3 6 -4 10 -1 10 17 0 13
-21 -6 -31 -13 -6 -20 -8 -16 -4 4 5 2 15 -4 24 -10 13 -10 14 2 4 8 -7 18
-13 23 -13z m-32 -16 c12 -34 4 -43 -12 -12 -6 12 -17 26 -23 30 -7 5 -4 8 7
8 10 0 22 -11 28 -26z m53 -39 c3 -9 0 -15 -9 -15 -8 0 -15 7 -15 15 0 8 4 15
9 15 5 0 11 -7 15 -15z m56 -30 c7 -9 8 -15 2 -15 -5 0 -12 7 -16 15 -3 8 -4
15 -2 15 2 0 9 -7 16 -15z m4895 -33 c17 -8 44 -25 62 -38 17 -13 39 -24 47
-24 24 0 20 -43 -6 -67 -34 -30 -46 -35 -65 -24 -10 5 -48 23 -86 41 -78 36
-105 67 -87 100 22 41 69 45 135 12z m-4894 0 c-7 -2 -18 1 -23 6 -8 8 -4 9
13 5 13 -4 18 -8 10 -11z m74 -12 c-3 -5 -12 -7 -20 -3 -21 7 -19 13 6 13 11
0 18 -4 14 -10z m1062 -6 c-3 -3 -12 -4 -19 -1 -8 3 -5 6 6 6 11 1 17 -2 13
-5z m-1090 -20 c-3 -3 -12 -4 -19 -1 -8 3 -5 6 6 6 11 1 17 -2 13 -5z m-210
-79 c1 -24 0 -26 -6 -10 l-8 20 -5 -20 c-4 -15 -6 -16 -7 -3 0 9 4 20 9 23 6
3 10 11 10 16 0 6 -4 7 -10 4 -6 -3 -10 4 -10 17 0 22 0 22 13 3 7 -11 14 -33
14 -50z m283 61 c0 -2 -7 -7 -16 -10 -8 -3 -12 -2 -9 4 6 10 25 14 25 6z m250
-21 c0 -8 -4 -15 -10 -15 -5 0 -10 7 -10 15 0 8 5 15 10 15 6 0 10 -7 10 -15z
m-403 -17 c-3 -8 -6 -5 -6 6 -1 11 2 17 5 13 3 -3 4 -12 1 -19z m-167 -43 c0
-8 -4 -15 -10 -15 -5 0 -7 7 -4 15 4 8 8 15 10 15 2 0 4 -7 4 -15z m231 -2
c13 -16 12 -17 -3 -4 -10 7 -18 15 -18 17 0 8 8 3 21 -13z m1454 -48 c0 -5
-16 -11 -35 -13 -19 -2 -39 -7 -45 -12 -29 -24 -214 -18 -223 8 -3 9 23 12
107 12 66 0 112 4 116 11 8 13 80 8 80 -6z m-1146 -121 c-11 -14 -55 -12 -68
2 -3 4 2 4 11 1 12 -4 21 1 29 14 8 16 13 18 25 8 11 -9 12 -15 3 -25z m34
-21 c-7 -2 -19 -2 -25 0 -7 3 -2 5 12 5 14 0 19 -2 13 -5z m-283 -23 c0 -5 -5
-10 -11 -10 -5 0 -7 5 -4 10 3 6 8 10 11 10 2 0 4 -4 4 -10z m257 4 c-3 -3
-12 -4 -19 -1 -8 3 -5 6 6 6 11 1 17 -2 13 -5z m-154 -51 c-7 -2 -19 -2 -25 0
-7 3 -2 5 12 5 14 0 19 -2 13 -5z m50 -20 c-7 -2 -19 -2 -25 0 -7 3 -2 5 12 5
14 0 19 -2 13 -5z m4178 -542 c16 -13 23 -29 23 -55 l0 -36 49 0 c41 0 215
-22 284 -36 38 -7 83 -53 83 -84 0 -24 -5 -31 -32 -38 -47 -13 -300 3 -335 21
-54 28 -84 86 -60 116 10 13 10 14 -3 5 -14 -10 -93 -26 -198 -39 -64 -8 -119
10 -137 45 -8 16 -15 33 -15 38 0 19 54 44 133 62 112 24 179 25 208 1z
m-1515 -55 c9 -10 10 -17 4 -21 -6 -4 -8 -11 -5 -16 4 -5 -2 -10 -12 -10 -10
-1 -25 -2 -33 -3 -9 0 -15 -13 -16 -31 -1 -16 -9 -43 -17 -59 -9 -16 -13 -34
-10 -40 3 -6 2 -7 -2 -3 -5 4 -10 15 -11 24 -2 9 -5 27 -8 39 -4 13 -1 26 4
29 6 4 7 11 4 17 -5 7 -1 9 9 5 13 -5 17 -1 17 15 0 21 36 66 53 67 5 1 15 -5
23 -13z m41 -122 c-3 -3 -12 0 -20 7 -10 10 -11 17 -3 25 8 10 13 8 20 -7 5
-11 6 -22 3 -25z m23 26 c0 -5 -2 -10 -4 -10 -3 0 -8 5 -11 10 -3 6 -1 10 4
10 6 0 11 -4 11 -10z m-225 -100 c3 -5 1 -10 -4 -10 -6 0 -11 5 -11 10 0 6 2
10 4 10 3 0 8 -4 11 -10z m-520 -30 c3 -5 2 -10 -4 -10 -5 0 -13 5 -16 10 -3
6 -2 10 4 10 5 0 13 -4 16 -10z m-254 -93 c-10 -9 -11 -8 -5 6 3 10 9 15 12
12 3 -3 0 -11 -7 -18z m427 3 c17 -11 32 -24 32 -29 0 -17 -33 -21 -50 -6 -9
8 -22 15 -28 15 -13 0 -16 22 -5 33 10 10 15 9 51 -13z m126 -57 c-27 -27 -51
-47 -53 -46 -2 1 -17 -7 -32 -18 -26 -18 -33 -19 -64 -8 -19 7 -35 16 -35 21
0 13 37 28 69 28 21 0 31 5 31 15 0 8 4 15 9 15 6 0 8 -10 6 -21 -4 -20 -3
-20 13 -6 27 24 86 65 96 66 5 1 -13 -20 -40 -46z m753 -19 c-3 -3 -12 -4 -19
-1 -8 3 -5 6 6 6 11 1 17 -2 13 -5z m9 -31 c-3 -7 -1 -13 5 -13 6 0 7 -5 3
-12 -5 -8 -10 -5 -17 9 -8 18 -13 20 -39 11 -16 -6 -32 -8 -35 -4 -4 3 1 6 10
6 10 0 17 3 17 8 0 4 14 7 30 7 21 1 29 -3 26 -12z m-648 -17 c3 -15 1 -16
-17 -6 -12 6 -19 16 -15 21 9 15 28 5 32 -15z m632 -18 c0 -19 -2 -20 -10 -8
-13 19 -13 30 0 30 6 0 10 -10 10 -22z m-290 -78 c0 -5 -5 -10 -11 -10 -8 0
-7 -5 1 -15 11 -13 10 -14 -4 -9 -16 6 -21 25 -9 37 10 10 23 8 23 -3z m-847
-122 c-7 -67 -13 -88 -23 -88 -17 0 -11 80 8 105 9 14 18 25 19 25 0 0 -1 -19
-4 -42z m259 -142 c18 -18 26 -32 20 -38 -13 -13 -82 49 -82 74 0 23 8 19 62
-36z"/>
<path d="M3626 3997 c3 -10 9 -15 12 -12 3 3 0 11 -7 18 -10 9 -11 8 -5 -6z"/>
<path d="M3632 3220 c0 -14 2 -19 5 -12 2 6 2 18 0 25 -3 6 -5 1 -5 -13z"/>
<path d="M5250 3394 c0 -8 5 -12 10 -9 6 4 8 11 5 16 -9 14 -15 11 -15 -7z"/>
<path d="M5405 3376 c11 -8 26 -11 34 -8 12 4 11 7 -5 13 -34 13 -50 11 -29
-5z"/>
<path d="M5606 3388 c3 -4 2 -8 -3 -8 -4 0 -21 -11 -37 -25 -16 -14 -33 -25
-38 -25 -4 0 -8 -4 -8 -10 0 -5 5 -10 11 -10 15 0 79 45 94 67 11 16 11 19 -5
19 -10 0 -16 -4 -14 -8z"/>
<path d="M1419 3051 c6 -10 8 -20 6 -23 -3 -3 2 -5 10 -5 10 0 12 4 5 12 -5 7
-7 14 -4 17 2 3 -2 8 -11 12 -12 4 -14 2 -6 -13z"/>
<path d="M1575 3040 c3 -5 13 -10 21 -10 8 0 14 5 14 10 0 6 -9 10 -21 10 -11
0 -17 -4 -14 -10z"/>
<path d="M1363 3005 c0 -8 4 -12 9 -9 5 3 6 10 3 15 -9 13 -12 11 -12 -6z"/>
<path d="M1247 2758 c-8 -30 -1 -38 33 -38 33 0 44 12 35 40 -9 29 -61 28 -68
-2z"/>
<path d="M1120 2760 c0 -5 5 -10 11 -10 5 0 7 5 4 10 -3 6 -8 10 -11 10 -2 0
-4 -4 -4 -10z"/>
<path d="M1356 2715 c-18 -27 -14 -45 10 -45 8 0 13 -4 9 -9 -3 -6 7 -6 27 0
18 5 34 9 35 9 12 0 -1 39 -17 53 -28 24 -45 21 -64 -8z"/>
<path d="M1181 2664 c0 -11 3 -14 6 -6 3 7 2 16 -1 19 -3 4 -6 -2 -5 -13z"/>
<path d="M1391 2581 c-1 -7 -7 -11 -16 -7 -18 7 -38 -28 -30 -53 7 -24 47 -21
75 4 15 14 17 22 9 37 -5 10 -14 16 -19 13 -4 -3 -11 1 -13 7 -4 10 -6 10 -6
-1z"/>
<path d="M1471 2524 c0 -11 3 -14 6 -6 3 7 2 16 -1 19 -3 4 -6 -2 -5 -13z"/>
<path d="M1392 2490 c-21 -20 -29 -38 -28 -59 1 -26 3 -29 15 -16 10 10 11 18
3 27 -14 17 11 54 29 42 7 -4 10 -3 5 4 -3 6 2 15 11 21 10 6 13 11 6 11 -6 0
-25 -13 -41 -30z"/>
<path d="M1330 2360 c0 -11 7 -20 15 -20 8 0 15 -4 15 -10 0 -5 -10 -10 -21
-10 -17 0 -19 -3 -10 -14 6 -7 9 -20 6 -28 -4 -9 1 -18 9 -21 18 -7 30 8 22
28 -3 8 -1 17 3 19 12 8 -12 76 -26 76 -7 0 -13 -9 -13 -20z"/>
<path d="M1410 2330 c0 -5 7 -10 15 -10 8 0 15 5 15 10 0 6 -7 10 -15 10 -8 0
-15 -4 -15 -10z"/>
<path d="M1450 2330 c0 -5 5 -10 10 -10 6 0 10 5 10 10 0 6 -4 10 -10 10 -5 0
-10 -4 -10 -10z"/>
<path d="M1350 2229 c0 -5 5 -7 10 -4 6 3 10 8 10 11 0 2 -4 4 -10 4 -5 0 -10
-5 -10 -11z"/>
<path d="M5945 4779 c-27 -10 -59 -21 -70 -25 -11 -3 -29 -8 -40 -9 -22 -4
-159 -43 -190 -55 -11 -5 -40 -13 -65 -19 -54 -14 -65 -17 -107 -30 -17 -5
-35 -6 -39 -3 -4 4 -4 2 -1 -4 4 -8 -10 -14 -42 -18 -26 -3 -51 -9 -55 -13 -4
-4 -37 -15 -74 -24 -37 -10 -92 -24 -122 -33 -30 -9 -65 -16 -77 -16 -13 0
-23 -4 -23 -10 0 -5 -9 -10 -19 -10 -10 0 -47 -9 -82 -19 -35 -10 -127 -36
-204 -56 -77 -20 -164 -45 -192 -56 -29 -10 -53 -16 -53 -14 0 3 -9 1 -19 -5
-13 -6 -17 -17 -14 -30 3 -11 9 -18 13 -15 19 11 53 -54 55 -105 0 -20 5 -24
22 -23 17 2 21 -1 16 -14 -5 -13 -1 -15 23 -10 l28 5 -34 -29 c-19 -16 -41
-29 -47 -29 -15 0 -18 -50 -4 -50 20 0 41 13 41 25 0 8 14 23 30 35 17 12 30
27 30 35 0 23 59 38 145 36 27 -1 52 -6 55 -10 5 -8 23 -11 65 -12 11 0 25 7
31 16 11 14 13 12 19 -14 4 -20 11 -28 20 -25 8 3 11 12 8 20 -3 9 1 14 12 14
9 0 13 -4 10 -10 -8 -13 13 -13 95 0 95 15 103 19 89 36 -9 11 -7 14 10 14 12
0 19 -4 16 -10 -3 -5 0 -10 9 -10 11 0 16 19 20 78 4 42 9 105 11 140 4 46 2
62 -7 62 -14 0 -13 0 -243 -60 -88 -22 -198 -50 -245 -60 -47 -11 -96 -24
-110 -29 -43 -16 -90 -23 -90 -13 0 11 41 28 90 37 32 6 173 46 280 80 25 8
65 18 90 21 25 4 50 10 55 14 6 4 37 14 70 21 67 14 64 14 85 21 8 4 44 14 80
23 36 9 79 20 95 25 29 9 136 38 245 66 30 8 75 20 100 25 25 6 54 14 65 19
11 5 40 13 65 19 96 22 149 36 156 44 4 4 16 7 27 7 11 0 43 7 71 15 28 8 74
21 101 29 49 14 47 14 -90 13 -105 0 -153 -5 -190 -18z m-762 -406 c6 -32 -9
-66 -26 -60 -7 2 -20 0 -29 -5 -10 -5 -18 -5 -18 -1 0 14 14 29 33 36 10 4 16
11 13 16 -7 11 3 41 14 41 4 0 10 -12 13 -27z m24 -35 c-3 -8 -6 -5 -6 6 -1
11 2 17 5 13 3 -3 4 -12 1 -19z m-349 -20 c-3 -8 -26 -14 -59 -15 l-54 -2 35
14 c45 18 83 19 78 3z m185 0 c3 -10 7 -10 20 1 11 9 17 10 17 2 0 -6 -4 -11
-9 -11 -5 0 -16 -6 -23 -14 -8 -7 -24 -17 -36 -20 -18 -6 -22 -3 -22 13 0 29
44 53 53 29z m-107 -23 c37 4 37 4 28 -19 -7 -18 -44 -22 -44 -4 0 6 -10 2
-23 -10 -16 -15 -26 -19 -34 -11 -7 7 -14 6 -24 -3 -19 -18 -35 -21 -99 -19
-43 1 -58 -2 -70 -18 -8 -10 -32 -22 -52 -25 -51 -9 -50 11 1 57 37 33 41 34
102 31 35 -3 78 -6 95 -8 26 -4 36 1 55 27 18 24 24 28 27 16 2 -13 12 -16 38
-14z m204 -69 c0 -2 -7 -7 -16 -10 -8 -3 -12 -2 -9 4 6 10 25 14 25 6z m-33
-29 c3 -4 -10 -7 -30 -7 -20 0 -38 4 -41 8 -6 9 61 8 71 -1z"/>
<path d="M6358 4783 c-26 -13 -28 -19 -29 -76 -1 -34 -3 -110 -5 -169 l-4
-108 24 0 c56 0 56 0 56 162 0 116 -3 148 -12 142 -10 -6 -10 -4 0 7 13 14 16
46 5 52 -5 2 -20 -3 -35 -10z"/>
<path d="M6235 4748 c-16 -5 -39 -13 -50 -18 -11 -5 -38 -12 -60 -16 -22 -4
-44 -9 -50 -10 -33 -11 -215 -59 -300 -80 -55 -14 -109 -29 -120 -34 -11 -5
-40 -13 -65 -19 -25 -5 -72 -17 -105 -26 -33 -9 -85 -22 -115 -29 -30 -8 -66
-18 -80 -24 l-25 -11 25 -2 c34 -3 62 -5 79 -7 11 -2 10 -6 -4 -16 -11 -8 -23
-12 -27 -10 -4 3 -16 0 -25 -6 -17 -11 -17 -11 0 -6 11 3 15 2 12 -4 -3 -6
-15 -10 -26 -10 -11 0 -17 -4 -14 -10 3 -5 1 -10 -4 -10 -6 0 -11 -11 -11 -25
0 -14 5 -25 12 -25 9 0 9 -3 1 -11 -8 -8 -8 -20 -3 -34 6 -16 4 -29 -5 -41
-23 -31 -19 -54 10 -54 14 0 25 3 25 8 0 11 49 62 60 62 6 0 10 -6 10 -14 0
-16 21 -26 56 -26 14 0 24 6 24 15 0 9 -6 12 -17 8 -13 -5 -15 -2 -10 12 6 15
5 16 -8 5 -8 -7 -12 -16 -9 -21 3 -5 1 -9 -5 -9 -20 0 -20 18 -1 35 11 10 20
25 20 34 0 13 2 14 9 2 7 -11 10 -9 13 10 2 19 10 25 36 27 18 2 32 0 31 -5
-1 -4 -1 -21 0 -37 1 -23 4 -26 15 -17 9 8 16 8 20 2 8 -12 -25 -31 -55 -31
-12 0 -20 -2 -17 -5 3 -4 29 -3 57 1 40 5 51 10 51 25 0 10 -4 20 -9 23 -5 4
-8 14 -6 24 2 9 4 24 4 33 1 12 12 18 36 21 19 2 35 0 35 -4 0 -4 -7 -8 -15
-8 -8 0 -15 -4 -15 -10 0 -5 7 -7 15 -4 25 10 18 -41 -7 -59 -23 -16 -22 -16
17 -16 23 0 33 3 24 7 -12 6 -13 11 -4 29 7 13 15 20 18 16 4 -3 7 2 8 13 0
17 1 16 9 -3 5 -13 15 -23 22 -24 7 0 2 -5 -12 -11 l-25 -11 24 -5 c17 -3 30
3 44 20 10 12 16 17 12 10 -6 -11 4 -12 51 -7 33 4 67 11 76 16 9 5 27 9 40 9
21 0 23 5 23 48 1 69 8 82 50 82 19 0 43 4 53 9 9 5 36 13 60 18 47 11 44 15
44 -72 l-1 -40 13 40 c7 22 12 50 11 63 -2 21 1 22 29 17 24 -5 28 -4 16 5
-13 10 -13 11 0 7 16 -4 17 -11 7 -69 -5 -33 -3 -38 13 -38 15 0 20 10 24 43
11 82 24 282 20 289 -6 10 -21 9 -59 -4z m13 -127 l-2 -48 -56 -16 c-51 -15
-89 -24 -134 -33 -10 -2 -34 -9 -53 -15 -47 -15 -57 -3 -41 49 9 31 20 44 40
51 28 10 33 6 29 -26 -3 -21 20 -15 26 7 3 11 9 20 14 20 5 0 9 7 9 15 0 8 9
15 20 15 14 0 20 -7 20 -22 1 -22 1 -22 12 -3 6 11 16 23 22 27 7 5 7 8 1 9
-14 2 45 16 73 18 20 1 22 -3 20 -48z m-527 -99 c-7 -14 -8 -29 -2 -45 11 -28
4 -33 -58 -43 -20 -3 -40 -8 -45 -12 -5 -3 -27 -7 -48 -9 -33 -3 -39 0 -36 14
2 11 12 18 26 17 16 0 22 5 22 22 0 18 6 23 41 26 35 3 40 1 36 -14 -3 -11 0
-18 9 -18 8 0 14 3 15 8 3 35 12 57 27 68 22 16 26 11 13 -14z m180 21 c0 -5
2 -18 4 -29 4 -18 -2 -22 -37 -28 -22 -4 -42 -5 -44 -3 -2 2 7 17 19 35 20 28
56 44 58 25z m-111 -57 c0 -8 -4 -17 -9 -21 -12 -7 -24 12 -16 25 9 15 25 12
25 -4z m-275 -40 c8 -33 6 -39 -10 -49 -11 -7 -27 -12 -35 -13 -8 -1 -25 -4
-37 -8 -16 -5 -21 -3 -19 9 3 19 26 36 38 29 4 -3 8 4 8 16 0 29 19 62 33 57
7 -2 16 -20 22 -41z m-133 -51 c-2 -14 -9 -25 -16 -25 -8 0 -7 -3 1 -8 6 -4
-6 -7 -28 -7 -21 0 -39 0 -39 1 0 2 83 64 86 64 0 0 -1 -11 -4 -25z m558 -25
c0 -5 -4 -10 -9 -10 -6 0 -13 5 -16 10 -3 6 1 10 9 10 9 0 16 -4 16 -10z
m-635 -40 c-3 -5 -12 -10 -18 -10 -7 0 -6 4 3 10 19 12 23 12 15 0z m25 -19
c0 -17 -21 -24 -33 -11 -9 10 -9 11 1 6 6 -4 12 -2 12 3 0 6 5 11 10 11 6 0
10 -4 10 -9z"/>
<path d="M5 4467 c-3 -7 -5 -47 -3 -88 l3 -74 36 -3 c30 -3 37 1 47 23 15 33
15 64 0 98 -11 22 -24 32 -70 55 -5 2 -10 -3 -13 -11z"/>
<path d="M660 4470 c57 -8 197 -13 189 -6 -2 2 -58 6 -124 9 -81 4 -102 3 -65
-3z"/>
<path d="M5280 4466 c0 -2 7 -7 16 -10 8 -3 12 -2 9 4 -6 10 -25 14 -25 6z"/>
<path d="M129 4444 c-7 -9 -9 -31 -4 -61 13 -92 13 -93 56 -93 23 0 39 5 39
12 0 6 7 4 18 -5 44 -40 75 -7 68 70 -6 53 -35 88 -66 78 -10 -3 -36 -1 -59 4
-31 7 -43 6 -52 -5z m91 -103 c0 -5 -9 -7 -20 -4 -11 3 -20 7 -20 9 0 2 9 4
20 4 11 0 20 -4 20 -9z"/>
<path d="M888 4453 c7 -3 16 -2 19 1 4 3 -2 6 -13 5 -11 0 -14 -3 -6 -6z"/>
<path d="M1068 4433 c12 -2 30 -2 40 0 9 3 -1 5 -23 4 -22 0 -30 -2 -17 -4z"/>
<path d="M335 4363 c4 -38 9 -71 12 -75 8 -15 33 -8 34 10 0 14 3 13 16 -5 16
-23 43 -31 43 -13 0 6 10 5 26 -2 19 -9 30 -9 44 0 14 9 19 8 24 -3 7 -18 76
-21 76 -3 0 9 3 9 12 0 20 -20 48 -14 60 13 9 19 8 29 -6 50 -16 24 -16 25 4
25 15 0 20 -7 20 -29 0 -37 16 -81 30 -81 5 0 10 23 10 50 0 49 12 66 24 34 3
-9 6 -31 6 -50 0 -24 5 -34 15 -34 8 0 15 5 15 10 0 6 12 3 27 -7 l26 -17 -6
39 -7 40 18 -35 c31 -63 82 -45 82 30 0 56 -48 98 -77 69 -8 -8 -17 -8 -31 0
-12 6 -45 13 -74 16 -29 3 -74 8 -100 11 -37 4 -48 3 -48 -8 0 -9 -3 -9 -8 -2
-4 6 -33 14 -65 17 l-59 6 4 -50 c1 -27 0 -49 -4 -49 -5 0 -8 20 -8 44 0 25
-5 48 -12 52 -21 13 -59 10 -68 -6 -8 -13 -9 -13 -15 3 -4 9 -16 17 -27 17
-18 0 -19 -5 -13 -67z m258 0 c-7 -2 -19 -2 -25 0 -7 3 -2 5 12 5 14 0 19 -2
13 -5z m38 -39 l24 -27 -24 14 c-18 11 -25 11 -28 2 -7 -19 -43 -16 -43 3 0
10 5 14 15 10 9 -3 18 1 21 9 8 19 6 20 35 -11z m275 1 c4 -8 3 -23 0 -32 -6
-15 -8 -15 -16 -3 -13 20 -12 50 0 50 6 0 13 -7 16 -15z"/>
<path d="M1228 4423 c18 -2 45 -2 60 0 15 2 0 4 -33 4 -33 0 -45 -2 -27 -4z"/>
<path d="M1453 4403 c9 -2 25 -2 35 0 9 3 1 5 -18 5 -19 0 -27 -2 -17 -5z"/>
<path d="M1588 4393 c23 -2 59 -2 80 0 20 2 1 4 -43 4 -44 0 -61 -2 -37 -4z"/>
<path d="M6346 4381 c-12 -5 -15 -10 -9 -14 6 -4 24 0 39 8 23 12 25 15 9 14
-11 0 -29 -4 -39 -8z"/>
<path d="M993 4369 c-10 -10 -8 -77 4 -109 4 -8 5 -18 5 -22 -3 -12 79 -68 97
-68 11 0 7 6 -11 17 -30 19 -43 52 -27 68 7 7 15 4 24 -9 9 -12 22 -17 34 -13
11 3 36 1 56 -3 29 -7 35 -5 35 9 0 13 2 13 9 2 5 -8 24 -16 41 -18 27 -3 32
0 28 15 -3 11 2 23 13 30 16 10 18 8 21 -20 4 -37 28 -51 29 -16 l0 23 11 -22
c6 -13 17 -23 25 -23 10 0 12 7 8 23 l-7 22 21 -22 c26 -28 46 -29 60 -5 10
16 10 16 11 -2 0 -12 5 -16 15 -12 8 3 15 2 15 -3 0 -5 32 -9 71 -9 63 -1 72
2 76 19 5 19 6 19 17 -3 17 -33 48 -30 57 7 14 51 -7 105 -41 105 -10 0 -21
-6 -23 -12 -4 -10 -8 -10 -14 -1 -4 6 -28 11 -53 11 -25 0 -51 2 -59 4 -8 2
-17 -8 -22 -22 l-7 -25 -1 26 c-1 31 -26 45 -39 22 -8 -14 -10 -14 -15 1 -7
18 -42 22 -52 6 -4 -7 -12 -7 -25 0 -30 16 -60 12 -61 -7 0 -14 -3 -13 -11 5
-9 18 -19 22 -60 22 -43 0 -48 -2 -49 -22 l0 -23 -9 23 c-5 12 -18 22 -29 22
-15 0 -18 -5 -14 -22 5 -22 4 -22 -9 1 -21 38 -47 50 -62 28 -12 -15 -15 -15
-26 -2 -15 18 -41 20 -57 4z m60 -42 c4 3 7 -3 7 -15 0 -12 -2 -22 -4 -22 -2
0 -11 -3 -19 -6 -10 -3 -16 3 -19 20 -6 30 0 40 17 26 7 -5 15 -7 18 -3z m67
-33 c0 -13 -4 -24 -9 -24 -11 0 -22 40 -15 52 9 15 24 -2 24 -28z m127 -36
c-2 -13 -4 -5 -4 17 -1 22 1 32 4 23 2 -10 2 -28 0 -40z m203 10 c0 -10 -5
-18 -10 -18 -15 0 -23 27 -16 47 6 15 8 15 16 3 6 -8 10 -23 10 -32z m27 -5
c-3 -10 -5 -2 -5 17 0 19 2 27 5 18 2 -10 2 -26 0 -35z m233 -9 c0 -13 -4 -24
-10 -24 -5 0 -10 14 -10 31 0 17 4 28 10 24 6 -3 10 -17 10 -31z m-665 -25
c11 -17 0 -20 -21 -4 -17 13 -17 14 -2 15 9 0 20 -5 23 -11z"/>
<path d="M1873 4373 c9 -2 23 -2 30 0 6 3 -1 5 -18 5 -16 0 -22 -2 -12 -5z"/>
<path d="M2178 4353 c12 -2 32 -2 45 0 12 2 2 4 -23 4 -25 0 -35 -2 -22 -4z"/>
<path d="M6120 4338 c-47 -10 -107 -23 -135 -28 -27 -5 -84 -16 -125 -24 -232
-44 -348 -67 -375 -75 -16 -6 -52 -13 -80 -17 -60 -8 -94 -23 -53 -24 26 0 71
8 178 31 30 6 75 15 100 19 71 12 195 37 325 65 66 14 154 32 195 40 41 7 86
18 100 24 24 9 23 10 -10 9 -19 0 -73 -9 -120 -20z"/>
<path d="M1741 4323 c1 -29 13 -48 32 -49 13 -1 17 6 17 32 0 30 -3 34 -25 34
-17 0 -25 -5 -24 -17z"/>
<path d="M5335 4239 c-4 -5 8 -9 26 -9 35 0 35 8 1 15 -12 2 -24 0 -27 -6z"/>
<path d="M5278 4163 c6 -2 18 -2 25 0 6 3 1 5 -13 5 -14 0 -19 -2 -12 -5z"/>
<path d="M6392 4030 c0 -14 2 -19 5 -12 2 6 2 18 0 25 -3 6 -5 1 -5 -13z"/>
<path d="M6385 3903 c-3 -54 -10 -138 -15 -188 -13 -123 -24 -342 -21 -394 1
-11 4 -11 15 -1 8 6 12 19 10 28 -5 14 -2 13 10 -2 15 -18 16 8 16 317 0 185
-2 337 -4 337 -2 0 -7 -44 -11 -97z"/>
<path d="M2247 3963 c-4 -3 -7 -21 -7 -39 0 -32 1 -33 27 -23 35 13 44 28 32
51 -10 18 -39 24 -52 11z"/>
<path d="M3405 3960 c3 -5 8 -10 11 -10 2 0 4 5 4 10 0 6 -5 10 -11 10 -5 0
-7 -4 -4 -10z"/>
<path d="M635 3950 c-3 -6 0 -12 7 -14 15 -5 284 -14 603 -20 255 -5 229 -2
-175 19 -162 8 -325 17 -362 20 -40 3 -69 1 -73 -5z"/>
<path d="M1642 3911 c-10 -6 -7 -10 12 -13 16 -3 25 -1 23 5 -5 15 -20 18 -35
8z"/>
<path d="M2362 3881 c-9 -6 -11 -19 -7 -45 8 -40 8 -40 36 -26 21 12 25 50 7
68 -14 14 -19 15 -36 3z"/>
<path d="M837 3788 c-9 -6 -9 -10 1 -16 10 -7 11 -19 3 -53 -15 -63 -14 -67
12 -62 18 4 23 10 20 27 -5 25 20 52 37 41 7 -4 9 -19 5 -36 -6 -25 -4 -29 14
-29 14 0 21 6 21 20 0 29 13 24 29 -11 7 -16 16 -28 18 -25 3 3 18 -1 34 -9
39 -20 60 -19 66 5 3 11 11 20 19 20 7 0 14 12 16 27 l3 28 20 -21 c21 -23 92
-37 98 -19 2 5 13 -1 24 -15 19 -22 23 -23 38 -10 11 9 20 11 22 5 2 -6 19 -9
38 -7 33 4 35 6 35 42 l0 37 -95 1 c-85 1 -94 0 -88 -16 3 -11 -1 -9 -11 6
-20 26 -41 28 -55 5 -9 -15 -10 -15 -11 -3 0 20 -61 26 -92 9 -16 -9 -23 -9
-26 0 -5 15 -35 14 -51 -1 -11 -11 -12 -10 -6 0 5 10 1 13 -16 10 -19 -2 -23
1 -21 15 2 10 -2 24 -8 32 -12 14 -72 16 -93 3z m63 -33 c-7 -9 -15 -13 -17
-11 -7 7 7 26 19 26 6 0 6 -6 -2 -15z m120 -42 c0 -14 -19 -38 -25 -32 -8 8 5
39 16 39 5 0 9 -3 9 -7z m170 -8 c0 -8 -4 -15 -10 -15 -5 0 -7 7 -4 15 4 8 8
15 10 15 2 0 4 -7 4 -15z m190 -25 c13 -8 13 -10 -2 -10 -9 0 -20 5 -23 10 -8
13 5 13 25 0z"/>
<path d="M1795 3698 l6 -43 -15 30 c-14 26 -15 27 -10 5 l6 -25 -31 29 c-37
35 -39 28 -9 -25 16 -28 28 -39 45 -39 15 0 27 -8 32 -22 6 -16 8 -9 9 27 0
43 -19 105 -33 105 -3 0 -3 -19 0 -42z"/>
<path d="M1693 3655 c0 -44 2 -61 4 -37 2 23 2 59 0 80 -2 20 -4 1 -4 -43z"/>
<path d="M1765 3595 c36 -98 42 -110 60 -113 11 -1 26 2 33 6 18 12 41 80 34
104 -4 15 -9 10 -25 -24 l-20 -43 -7 30 c-6 24 -8 25 -9 8 -1 -21 -4 -20 -37
15 -23 24 -33 30 -29 17z"/>
<path d="M1700 3402 c0 -39 5 -74 10 -77 7 -4 8 18 4 67 -8 95 -14 99 -14 10z"/>
<path d="M2052 3445 c0 -16 2 -22 5 -12 2 9 2 23 0 30 -3 6 -5 -1 -5 -18z"/>
<path d="M2318 3398 c5 -5 16 -8 23 -6 8 3 3 7 -10 11 -17 4 -21 3 -13 -5z"/>
<path d="M6332 3133 c-6 -65 -14 -161 -16 -214 -3 -54 -7 -103 -8 -110 -2 -10
11 -15 45 -17 l47 -3 -1 213 c-1 120 -5 200 -9 183 -5 -21 -8 -24 -9 -9 -1 23
-23 74 -32 74 -3 0 -11 -53 -17 -117z"/>
<path d="M450 3229 c0 -5 5 -7 10 -4 6 3 10 8 10 11 0 2 -4 4 -10 4 -5 0 -10
-5 -10 -11z"/>
<path d="M1096 3192 c-3 -5 1 -9 9 -9 8 0 12 4 9 9 -3 4 -7 8 -9 8 -2 0 -6 -4
-9 -8z"/>
<path d="M1056 3147 c3 -10 9 -15 12 -12 3 3 0 11 -7 18 -10 9 -11 8 -5 -6z"/>
</g>
</svg>
